#N canvas 0 23 1440 828 10;
#X text 37 21 ===========;
#X text 133 8 . ____ ._____ _ .......___ .;
#X text 133 18 .| __ )| ____| |....../ _ |.;
#X text 133 38 .| |_) | |___| |___ / ___ |.;
#X text 133 48 .|____/|_____|_____/_/..._|.io;
#X text 133 58 ............................;
#X text 133 28 .| __ || __|.| |...../ _| |.;
#X text 39 11 Caress;
#X obj 42 101 mo.init;
#X obj 114 101 mo.ui;
#X obj 120 735 dac~ 27 28 29 30;
#X obj 527 101 mo.strip 1;
#X text 118 594 SCOPE ========, f 9;
#X obj 120 652 route /scope1 /scope2 /scope3 /scope4;
#X obj 120 625 r toScope;
#X obj 727 101 mo.strip 4;
#X obj 527 388 s mo.out.s1;
#X obj 727 387 s mo.out.s2;
#X obj 527 73 r mo.in.s1;
#X obj 727 72 r mo.in.s2;
#X obj 114 448 s mo.out.ui;
#X obj 115 77 r mo.in.ui;
#X obj 752 619 ali.gain;
#X obj 821 619 ali.gain;
#X obj 753 1183 dac~ 1 2, f 9;
#X text 819 1171 DAC ========, f 9;
#X text 749 520 PIEZOS 1 \, 2;
#X obj 752 845 ali.gain;
#X obj 893 846 ali.gain;
#X obj 753 1095 ali.gain2;
#X obj 752 761 resonators~ 480 0.5 1;
#X obj 902 762 resonators~ 880 0.5 1;
#X floatatom 1679 718 5 0 0 0 - - -, f 5;
#X msg 1896 438 indian-roots_Chakoa-8.coll indian-roots_Chakoa-9.coll
indian-roots_Dhalki-2.coll indian-roots_Duggi-4.coll indian-roots_Hand-Dhal.coll
indian-roots_khol.coll indian-roots_Madal.coll indian-roots_Manjeera-1.coll
indian-roots_Mirdangam-1.coll indian-roots_Mirdangam-4.coll indian-roots_Mirdangam-15.coll
indian-roots_Mirdangam-low-1.coll indian-roots_Stick-Dhal-1.coll indian-roots_Stick-Dhal-8.coll
indian-swar_DH1LDGE.max indian-swar_DH1TIN.max indian-swar_NG1GE.max
indian-swar_NG1NA.max indian-swar_PK1DIN.max indian-swar_PK1GE.max
indian-swar_PK1LOWTA.max;
#X floatatom 1745 563 5 0 0 0 - - -, f 5;
#X obj 1684 749 ali.res-model-loader;
#X text 1921 602 list of resonance model collections (max style text
file) they should all be in the search path;
#X obj 903 681 *~ 100;
#X obj 752 677 *~ 100;
#X obj 677 723 loadbang;
#X msg 677 748 127;
#X obj 1297 378 loadbang;
#X obj 1348 749 ali.res-model-loader;
#X floatatom 1432 555 5 0 0 0 - - -, f 5;
#X obj 1745 515 ali.scale 0 127 1 18;
#X obj 1433 509 ali.scale 0 127 1 18;
#X obj 1433 479 mo.r s1 k2;
#X obj 1433 531 int;
#X obj 1745 537 int;
#X obj 1745 492 mo.r s2 k2;
#X obj 1142 730 mo.r s1 k1;
#X msg 802 677 clear;
#X msg 956 681 clear;
#X obj 934 496 mo.r s1 s1;
#X obj 1017 497 mo.r s2 s1;
#X obj 934 569 mo.s s1 l1;
#X obj 903 1040 loadbang;
#X msg 903 1062 127;
#X obj 869 452 loadbang;
#X obj 934 547 tgl 15 0 empty empty empty 17 7 0 10 -262144 -1 -1 127
127;
#X obj 1017 547 tgl 15 0 empty empty empty 17 7 0 10 -262144 -1 -1
127 127;
#X obj 934 520 sel 0;
#X obj 1017 520 sel 0;
#X obj 1017 570 mo.s s2 l1;
#X obj 1089 407 loadbang;
#X msg 1089 522 127;
#X obj 1143 838 mo.s s1 st;
#X msg 1349 414 30;
#X obj 962 108 mo.joy 1;
#X obj 1091 108 mo.joy 2;
#X obj 962 345 s mo.out.j1;
#X obj 1091 347 s mo.out.j2;
#X obj 518 568 metro 600;
#X msg 518 599 0.5;
#X msg 588 599 0.5;
#X obj 588 568 metro 200;
#X obj 518 528 tgl 15 0 empty empty empty 17 7 0 10 -262144 -1 -1 0
1;
#X obj 824 1063 mo.r ui k4, f 11;
#X obj 1143 816 / 127;
#X obj 1226 816 / 127;
#X obj 1225 730 mo.r s2 k1;
#X obj 1226 838 mo.s s2 st;
#X text 517 505 DEBUG;
#X floatatom 1346 709 5 0 0 0 - - -, f 5;
#X msg 869 477 80;
#X obj 547 979 ali.gain2;
#X obj 598 947 mo.r ui k2, f 11;
#X obj 446 937 rev3~ 100 90 3000 20;
#X obj 752 543 adc~ 1 2, f 12;
#X obj 1142 767 t b f;
#X obj 1143 790 f;
#X obj 1225 762 t b f;
#X obj 1226 785 f;
#X obj 1433 576 t b b f b 0, f 31;
#X obj 1745 594 t b b f b 0, f 21;
#X obj 752 898 compress_limit~;
#X obj 893 899 compress_limit~;
#X obj 753 650 compress_limit~;
#X obj 894 651 compress_limit~;
#X obj 1089 459 t b b;
#X obj 1089 622 loadbang;
#X msg 1089 729 127;
#X obj 1089 664 t b b;
#X obj 1089 481 delay 200;
#X obj 1089 691 delay 200;
#X obj 1089 429 delay 2000;
#X obj 1089 644 delay 2000;
#X obj 1668 492 loadbang;
#X msg 1668 536 5;
#X obj 1668 514 delay 1000;
#N canvas 494 210 727 543 transform_1 0;
#X msg 91 310 rate-scale \$1;
#X floatatom 104 241 5 0 0 0 - - -, f 5;
#X floatatom 266 280 5 0 0 0 - - -, f 5;
#X msg 253 309 frequency-scale \$1;
#X floatatom 398 281 5 0 0 0 - - -, f 5;
#X msg 385 310 gain-scale \$1;
#X obj 63 382 ali.res-transform;
#X obj 104 106 hsl 128 15 0 127 0 0 empty empty empty -2 -8 0 10 -262144
-1 -1 0 1;
#X obj 104 179 moses 64;
#X obj 104 210 ali.scale 0 64 0 1;
#X obj 222 211 ali.scale 64 127 1 5;
#X floatatom 499 281 5 0 0 0 - - -, f 5;
#X msg 486 310 frequency-add \$1;
#X obj 104 83 mo.r j1 h;
#X obj 378 102 mo.r j1 v;
#X obj 443 102 mo.r ui k1;
#N canvas 495 23 450 300 Joy-Freq 0;
#X obj 128 96 hsl 128 15 0 127 0 0 empty empty empty -2 -8 0 10 -262144
-1 -1 0 1;
#X obj 33 244 + 0;
#X obj 282 80 ali.scale 0 127 0.25 4;
#X obj 320 123 * 1.5;
#X obj 25 215 t b f;
#X obj 128 118 moses 64;
#X obj 128 169 ali.scale 0 64 0 0;
#X obj 267 169 ali.scale 64 127 0 0;
#X obj 267 192 - 0;
#X obj 274 122 * 0.5;
#X obj 128 191 - 0;
#X obj 128 73 inlet;
#X obj 282 58 inlet;
#X obj 38 280 outlet;
#X connect 0 0 5 0;
#X connect 1 0 13 0;
#X connect 2 0 3 0;
#X connect 2 0 4 0;
#X connect 2 0 6 4;
#X connect 2 0 7 3;
#X connect 2 0 8 1;
#X connect 2 0 9 0;
#X connect 2 0 10 1;
#X connect 3 0 7 4;
#X connect 4 0 1 0;
#X connect 4 1 1 1;
#X connect 5 0 6 0;
#X connect 5 1 7 0;
#X connect 6 0 10 0;
#X connect 7 0 8 0;
#X connect 8 0 1 0;
#X connect 9 0 6 3;
#X connect 10 0 1 0;
#X connect 11 0 0 0;
#X connect 12 0 2 0;
#X restore 380 188 pd Joy-Freq;
#X obj 104 147 spigot;
#X obj 243 87 mo.r j1 s;
#X obj 243 109 sel 0;
#X obj 243 131 tgl 15 0 empty empty empty 17 7 0 10 -262144 -1 -1 0
1;
#X obj 307 87 loadbang;
#X obj 380 155 spigot;
#X obj 378 124 change;
#X obj 104 126 change;
#X obj 104 284 line;
#X floatatom 175 280 5 0 0 0 - - -, f 5;
#X msg 104 262 \$1 80;
#X obj 521 100 / 127;
#X obj 521 129 mo.s ui l1;
#X obj 398 237 loadbang;
#X msg 398 262 1.5;
#X obj 355 211 ali.scale 0 64 2 1.5;
#X obj 491 212 ali.scale 64 127 1.5 0.5;
#X obj 30 76 inlet;
#X obj 61 445 outlet;
#X obj 399 434 block~ 4096 1 1;
#X msg 307 109 0;
#N canvas 847 316 232 295 gain-setter 0;
#X obj 53 67 inlet;
#X obj 52 225 s r.gain_1;
#X obj 53 141 == 0;
#X obj 52 180 * 127;
#X connect 0 0 2 0;
#X connect 2 0 3 0;
#X connect 3 0 1 0;
#X restore 242 158 pd gain-setter;
#X msg 364 260 29;
#X connect 0 0 6 0;
#X connect 1 0 27 0;
#X connect 2 0 3 0;
#X connect 3 0 6 0;
#X connect 4 0 5 0;
#X connect 5 0 6 0;
#X connect 6 0 35 0;
#X connect 7 0 24 0;
#X connect 8 0 9 0;
#X connect 8 0 32 0;
#X connect 8 1 10 0;
#X connect 8 1 33 0;
#X connect 9 0 1 0;
#X connect 10 0 1 0;
#X connect 11 0 12 0;
#X connect 12 0 6 0;
#X connect 13 0 7 0;
#X connect 14 0 23 0;
#X connect 15 0 16 1;
#X connect 15 0 28 0;
#X connect 16 0 2 0;
#X connect 17 0 8 0;
#X connect 18 0 19 0;
#X connect 19 0 20 0;
#X connect 20 0 17 1;
#X connect 20 0 22 1;
#X connect 20 0 38 0;
#X connect 21 0 37 0;
#X connect 22 0 16 0;
#X connect 23 0 22 0;
#X connect 24 0 17 0;
#X connect 25 0 0 0;
#X connect 25 0 26 0;
#X connect 27 0 25 0;
#X connect 28 0 29 0;
#X connect 30 0 31 0;
#X connect 30 0 39 0;
#X connect 31 0 4 0;
#X connect 32 0 4 0;
#X connect 33 0 4 0;
#X connect 34 0 6 0;
#X connect 37 0 20 0;
#X connect 39 0 16 1;
#X restore 1348 776 pd transform_1;
#N canvas 495 23 706 402 transform_2 0;
#X msg 115 284 rate-scale \$1;
#X floatatom 128 255 5 0 0 0 - - -, f 5;
#X floatatom 240 255 5 0 0 0 - - -, f 5;
#X msg 227 283 frequency-scale \$1;
#X floatatom 372 255 5 0 0 0 - - -, f 5;
#X msg 359 284 gain-scale \$1;
#X obj 54 309 ali.res-transform;
#X obj 137 40 hsl 128 15 0 127 0 0 empty empty empty -2 -8 0 10 -262144
-1 -1 0 1;
#X obj 137 153 moses 64;
#X obj 137 184 ali.scale 0 64 0 1;
#X obj 255 185 ali.scale 64 127 1 5;
#X floatatom 470 256 5 0 0 0 - - -, f 5;
#X msg 460 282 frequency-add \$1;
#X obj 137 16 mo.r j2 h;
#N canvas 495 23 450 300 Joy-Freq 0;
#X obj 128 96 hsl 128 15 0 127 0 0 empty empty empty -2 -8 0 10 -262144
-1 -1 0 1;
#X obj 33 244 + 0;
#X obj 282 80 ali.scale 0 127 0.25 4;
#X obj 320 123 * 1.5;
#X obj 25 215 t b f;
#X obj 128 118 moses 64;
#X obj 128 169 ali.scale 0 64 0 0;
#X obj 267 169 ali.scale 64 127 0 0;
#X obj 267 192 - 0;
#X obj 274 122 * 0.5;
#X obj 128 191 - 0;
#X obj 128 73 inlet;
#X obj 282 58 inlet;
#X obj 38 280 outlet;
#X connect 0 0 5 0;
#X connect 1 0 13 0;
#X connect 2 0 3 0;
#X connect 2 0 4 0;
#X connect 2 0 6 4;
#X connect 2 0 7 3;
#X connect 2 0 8 1;
#X connect 2 0 9 0;
#X connect 2 0 10 1;
#X connect 3 0 7 4;
#X connect 4 0 1 0;
#X connect 4 1 1 1;
#X connect 5 0 6 0;
#X connect 5 1 7 0;
#X connect 6 0 10 0;
#X connect 7 0 8 0;
#X connect 8 0 1 0;
#X connect 9 0 6 3;
#X connect 10 0 1 0;
#X connect 11 0 0 0;
#X connect 12 0 2 0;
#X restore 404 149 pd Joy-Freq;
#X obj 404 50 mo.r j2 v;
#X obj 467 49 mo.r ui k3;
#X obj 137 90 spigot;
#X obj 278 41 sel 0;
#X obj 278 63 tgl 15 0 empty empty empty 17 7 0 10 -262144 -1 -1 0
1;
#X obj 342 19 loadbang;
#X obj 404 118 spigot;
#X obj 278 19 mo.r j2 s;
#X obj 137 60 change;
#X obj 404 72 change;
#X obj 543 42 / 127;
#X obj 543 64 mo.s ui l3;
#X obj 372 213 loadbang;
#X msg 372 234 1.5;
#X obj 392 186 ali.scale 0 64 2 1.5;
#X obj 528 187 ali.scale 64 127 1.5 0.5;
#X obj 54 230 inlet;
#X obj 54 331 outlet;
#X obj 581 389 block~ 4096 1 1;
#X msg 342 41 0;
#N canvas 847 316 232 295 gain-setter 0;
#X obj 53 67 inlet;
#X obj 53 141 == 0;
#X obj 52 180 * 127;
#X obj 52 225 s r.gain_2;
#X connect 0 0 1 0;
#X connect 1 0 2 0;
#X connect 2 0 3 0;
#X restore 275 103 pd gain-setter;
#X msg 337 234 29;
#X connect 0 0 6 0;
#X connect 1 0 0 0;
#X connect 2 0 3 0;
#X connect 3 0 6 0;
#X connect 4 0 5 0;
#X connect 5 0 6 0;
#X connect 6 0 32 0;
#X connect 7 0 23 0;
#X connect 8 0 9 0;
#X connect 8 0 29 0;
#X connect 8 1 10 0;
#X connect 8 1 30 0;
#X connect 9 0 1 0;
#X connect 10 0 1 0;
#X connect 11 0 12 0;
#X connect 12 0 6 0;
#X connect 13 0 7 0;
#X connect 14 0 2 0;
#X connect 15 0 24 0;
#X connect 16 0 14 1;
#X connect 16 0 25 0;
#X connect 17 0 8 0;
#X connect 18 0 19 0;
#X connect 19 0 17 1;
#X connect 19 0 21 1;
#X connect 19 0 35 0;
#X connect 20 0 34 0;
#X connect 21 0 14 0;
#X connect 22 0 18 0;
#X connect 23 0 17 0;
#X connect 24 0 21 0;
#X connect 25 0 26 0;
#X connect 27 0 28 0;
#X connect 27 0 36 0;
#X connect 28 0 4 0;
#X connect 29 0 4 0;
#X connect 30 0 4 0;
#X connect 31 0 6 0;
#X connect 34 0 19 0;
#X connect 36 0 14 1;
#X restore 1684 778 pd transform_2;
#X obj 752 961 ali.gain;
#X obj 797 937 r r.gain_1;
#X obj 893 958 ali.gain;
#X obj 938 934 r r.gain_2;
#X connect 9 0 20 0;
#X connect 11 0 16 0;
#X connect 14 0 13 0;
#X connect 15 0 17 0;
#X connect 18 0 11 0;
#X connect 19 0 15 0;
#X connect 21 0 9 0;
#X connect 22 0 97 0;
#X connect 23 0 98 0;
#X connect 27 0 87 0;
#X connect 27 0 95 0;
#X connect 28 0 87 1;
#X connect 28 0 96 0;
#X connect 29 0 24 0;
#X connect 29 1 24 1;
#X connect 30 0 27 0;
#X connect 31 0 28 0;
#X connect 32 0 35 0;
#X connect 33 0 42 2;
#X connect 33 0 35 2;
#X connect 34 0 94 0;
#X connect 35 0 111 0;
#X connect 37 0 31 0;
#X connect 38 0 30 0;
#X connect 39 0 40 0;
#X connect 40 0 27 1;
#X connect 40 0 28 1;
#X connect 41 0 33 0;
#X connect 41 0 67 0;
#X connect 42 0 110 0;
#X connect 43 0 93 0;
#X connect 44 0 48 0;
#X connect 45 0 47 0;
#X connect 46 0 45 0;
#X connect 47 0 43 0;
#X connect 48 0 34 0;
#X connect 49 0 44 0;
#X connect 50 0 89 0;
#X connect 51 0 30 0;
#X connect 52 0 31 0;
#X connect 53 0 61 0;
#X connect 54 0 62 0;
#X connect 56 0 57 0;
#X connect 57 0 29 2;
#X connect 58 0 84 0;
#X connect 59 0 55 0;
#X connect 59 0 22 1;
#X connect 60 0 63 0;
#X connect 60 0 23 1;
#X connect 61 0 59 0;
#X connect 62 0 60 0;
#X connect 64 0 105 0;
#X connect 65 0 60 0;
#X connect 65 0 59 0;
#X connect 67 0 32 0;
#X connect 67 0 83 0;
#X connect 68 0 70 0;
#X connect 69 0 71 0;
#X connect 72 0 73 0;
#X connect 73 0 30 0;
#X connect 74 0 31 0;
#X connect 75 0 74 0;
#X connect 76 0 72 0;
#X connect 76 0 75 0;
#X connect 77 0 29 2;
#X connect 78 0 66 0;
#X connect 79 0 81 0;
#X connect 80 0 91 0;
#X connect 83 0 42 0;
#X connect 84 0 22 1;
#X connect 84 0 23 1;
#X connect 85 0 29 0;
#X connect 85 1 29 1;
#X connect 86 0 85 2;
#X connect 87 0 85 0;
#X connect 87 1 85 1;
#X connect 88 0 22 0;
#X connect 88 1 23 0;
#X connect 89 0 90 0;
#X connect 89 1 90 1;
#X connect 90 0 78 0;
#X connect 90 0 27 1;
#X connect 91 0 92 0;
#X connect 91 1 92 1;
#X connect 92 0 79 0;
#X connect 92 0 28 1;
#X connect 93 0 90 0;
#X connect 93 1 83 0;
#X connect 93 2 42 1;
#X connect 93 3 51 0;
#X connect 93 4 27 1;
#X connect 94 0 92 0;
#X connect 94 1 32 0;
#X connect 94 2 35 1;
#X connect 94 3 52 0;
#X connect 94 4 28 1;
#X connect 95 0 112 0;
#X connect 96 0 114 0;
#X connect 97 0 38 0;
#X connect 98 0 37 0;
#X connect 99 0 103 0;
#X connect 99 1 65 0;
#X connect 100 0 106 0;
#X connect 101 0 89 0;
#X connect 101 0 91 0;
#X connect 102 0 104 0;
#X connect 102 1 101 0;
#X connect 103 0 65 0;
#X connect 104 0 101 0;
#X connect 105 0 99 0;
#X connect 106 0 102 0;
#X connect 107 0 109 0;
#X connect 108 0 34 0;
#X connect 109 0 108 0;
#X connect 110 0 30 0;
#X connect 111 0 31 0;
#X connect 112 0 29 0;
#X connect 113 0 112 1;
#X connect 114 0 29 1;
#X connect 115 0 114 1;
