#N canvas 720 23 720 828 10;
#X msg 23 321 disconnect;
#X obj 178 320 list trim;
#X msg 16 300 connect 192.168.7.2 3001;
#X obj 178 275 oscformat;
#X obj 178 299 list prepend send;
#X obj 178 252 r osc;
#X obj 16 355 netsend -u -b;
#X text 14 245 Local sender;
#X text 442 36 /train;
#X text 442 55 /record f;
#X text 442 75 /add f f f f;
#X text 443 93 /write pathstring;
#X text 444 110 /read pathstring;
#X text 400 18 ml.lib /clear;
#X msg 8 280 connect localhost 3001;
#X obj 32 204 print;
#X floatatom 293 17 5 0 0 0 - - -, f 5;
#X obj 32 71 ml.train;
#X connect 0 0 6 0;
#X connect 1 0 6 0;
#X connect 2 0 6 0;
#X connect 3 0 4 0;
#X connect 4 0 1 0;
#X connect 5 0 3 0;
#X connect 14 0 6 0;
#X connect 16 0 17 1;
#X connect 17 0 15 0;
