#N canvas 425 54 571 696 10;
#X obj 55 460 dac~;
#X obj 295 73 noise~;
#X obj 295 101 *~ 100;
#X obj 295 125 *~ 0;
#X obj 346 72 tgl 15 0 empty empty empty 17 7 0 10 -262144 -1 -1 0
1;
#X msg 289 251 640 0.5 4 843.5 0.4 2 2041 0.3 8;
#X msg 289 223 540 0.5 4 543.5 0.4 2;
#X msg 288 277 clear;
#X obj 55 93 metro 600;
#X msg 55 124 0.5;
#X obj 55 66 tgl 15 0 empty empty empty 17 7 0 10 -262144 -1 -1 0 1
;
#X msg 205 127 0.5;
#X obj 205 69 tgl 15 0 empty empty empty 17 7 0 10 -262144 -1 -1 0
1;
#X obj 205 96 metro 200;
#X obj 56 -49 loadbang;
#X obj 178 457 print 1;
#X obj 328 459 print 1;
#X obj 55 402 resonators~ 480 0.5 1;
#X obj 205 406 resonators~ 880 0.5 1;
#X text 286 201 frequency \, gain \, decayrate triples;
#X text 61 146 Float: impulse amplitude;
#X text 370 73 Excitation signal;
#N canvas 1197 337 455 507 why? 0;
#X text 35 46 Why does this example multiply the noise~ amplitude by
100 before passing the signal through the resonant filter?;
#X text 39 98 Unless your model has lots of very wide resonances \,
you'll probably have to boost input signals a lot to hear them. The
issue is that only the spectral energy that lines up with the filters
will appear in the output. But beware \, energy focused at the same
frequency as a resonance will come through loud and clear.;
#X obj 47 229 noise~;
#X obj 300 225 osc~ 480;
#X obj 47 284 *~ 100;
#X obj 300 271 *~ 100;
#X obj 47 336 resonators~ 480 0.5 1;
#X obj 300 331 resonators~ 480 0.5 1;
#N canvas 1144 741 450 300 minmax~ 0;
#X obj 89 72 env~;
#X obj 89 30 inlet~;
#X obj 171 130 f;
#X obj 88 129 min 3e+38;
#X obj 306 134 f;
#X obj 88 94 t a a;
#X obj 88 182 outlet;
#X obj 227 178 outlet;
#X obj 227 133 max 1.1e-38;
#X connect 0 0 5 0;
#X connect 1 0 0 0;
#X connect 2 0 3 1;
#X connect 3 0 2 0;
#X connect 3 0 6 0;
#X connect 4 0 8 1;
#X connect 5 0 3 0;
#X connect 5 1 8 0;
#X connect 8 0 4 0;
#X connect 8 0 7 0;
#X restore 47 372 pd minmax~;
#X floatatom 47 416 5 0 0 0 - - -, f 5;
#X floatatom 104 416 10 0 0 0 - - -, f 10;
#N canvas 1144 741 450 300 minmax~ 0;
#X obj 89 72 env~;
#X obj 89 30 inlet~;
#X obj 171 130 f;
#X obj 88 129 min 3e+38;
#X obj 306 134 f;
#X obj 88 94 t a a;
#X obj 88 182 outlet;
#X obj 227 178 outlet;
#X obj 227 133 max 1.1e-38;
#X connect 0 0 5 0;
#X connect 1 0 0 0;
#X connect 2 0 3 1;
#X connect 3 0 2 0;
#X connect 3 0 6 0;
#X connect 4 0 8 1;
#X connect 5 0 3 0;
#X connect 5 1 8 0;
#X connect 8 0 4 0;
#X connect 8 0 7 0;
#X restore 300 374 pd minmax~;
#X floatatom 300 418 5 0 0 0 - - -, f 5;
#X floatatom 357 418 10 0 0 0 - - -, f 10;
#X obj 177 474 switch~;
#X obj 177 448 tgl 15 0 empty empty empty 17 7 0 10 -262144 -1 -1 0
1;
#X connect 2 0 4 0;
#X connect 3 0 5 0;
#X connect 4 0 6 0;
#X connect 5 0 7 0;
#X connect 6 0 8 0;
#X connect 7 0 11 0;
#X connect 8 0 9 0;
#X connect 8 1 10 0;
#X connect 11 0 12 0;
#X connect 11 1 13 0;
#X connect 15 0 14 0;
#X restore 373 99 pd why?;
#X msg 95 19 \; pd dsp 1;
#X obj 56 -24 delay 100;
#X obj 56 -4 t b b;
#X msg 56 17 1;
#X obj 56 38 t a a;
#X obj 292 584 pbank 10 10 name name;
#X connect 1 0 2 0;
#X connect 2 0 3 0;
#X connect 3 0 17 0;
#X connect 4 0 3 1;
#X connect 5 0 17 0;
#X connect 6 0 17 0;
#X connect 7 0 17 0;
#X connect 8 0 9 0;
#X connect 9 0 17 0;
#X connect 10 0 8 0;
#X connect 11 0 18 0;
#X connect 12 0 13 0;
#X connect 13 0 11 0;
#X connect 14 0 24 0;
#X connect 17 0 0 0;
#X connect 17 1 15 0;
#X connect 18 0 0 1;
#X connect 18 1 16 0;
#X connect 24 0 25 0;
#X connect 25 0 26 0;
#X connect 25 1 23 0;
#X connect 26 0 27 0;
#X connect 27 0 10 0;
#X connect 27 1 12 0;
