#N canvas 117 0 1323 878 10;
#X msg 171 269 0.00166321 0.0206909 -1.00471;
#X obj 157 213 list prepend set;
#X obj 94 141 oscparse;
#X obj 94 117 netreceive -u -b;
#X obj 94 68 loadbang;
#X obj 94 189 route accxyz;
#X obj 94 165 list trim;
#X obj 157 239 list trim;
#X text 92 44 test data: TouchOSC accxyz;
#X obj 94 318 outlet;
#X obj 157 318 outlet;
#X obj 186 66 inlet;
#X msg 94 93 listen 5000;
#X msg 186 90 listen \$1;
#X connect 1 0 7 0;
#X connect 2 0 6 0;
#X connect 3 0 2 0;
#X connect 4 0 12 0;
#X connect 5 0 1 0;
#X connect 5 0 9 0;
#X connect 6 0 5 0;
#X connect 7 0 0 0;
#X connect 7 0 10 0;
#X connect 11 0 13 0;
#X connect 12 0 3 0;
#X connect 13 0 3 0;
